<svg xmlns="http://www.w3.org/2000/svg" viewBox="0 0 70 100">
<path d="M 25 4 C 8 5 6 16 10 32 C 12 45 23 59 23 70 C 23 82 14 91 5 96 C 30 94 44 80 46 67 C 48 52 42 43 49 35 C 61 36 68 29 65 20 C 62 9 43 0 25 4 Z" fill="#2D5E87" stroke="#173E62" stroke-width="3.5"/>
<path d="M 13 30 C 18 40 25 45 35 47 C 36 58 32 64 31 71 C 30 81 22 86 17 90 C 39 80 43 68 41 58 C 40 47 40 42 44 35 C 31 34 21 31 13 24 Z" fill="#73A4C3"/>
<path d="M 25 10 C 14 12 14 20 25 26 C 37 33 56 34 61 26 C 65 19 48 9 36 10 C 29 9 25 12 30 16 C 35 20 44 22 49 22" fill="none" stroke="#87B2CC" stroke-width="5" stroke-linecap="round"/>
<path d="M 18 41 C 25 47 30 50 42 50 M 24 59 C 29 61 35 62 42 61 M 26 75 C 31 75 36 73 40 70" fill="none" stroke="#255379" stroke-width="3" stroke-linecap="round"/>
</svg>